<?xml version="1.0" encoding="utf-8"?>
<!-- Generator: Adobe Illustrator 16.0.0, SVG Export Plug-In . SVG Version: 6.00 Build 0)  -->
<!DOCTYPE svg PUBLIC "-//W3C//DTD SVG 1.1//EN" "http://www.w3.org/Graphics/SVG/1.1/DTD/svg11.dtd">
<svg version="1.1" id="Capa_1" xmlns="http://www.w3.org/2000/svg" xmlns:xlink="http://www.w3.org/1999/xlink" x="0px" y="0px"
	 width="280.682px" height="291.421px" viewBox="139.851 104.537 280.682 291.421"
	 enable-background="new 139.851 104.537 280.682 291.421" xml:space="preserve">
<g>
	<g>
		<path fill="#FAE282" d="M140.995,237.845c-6.012,38.539,12.437,74.301,37.467,101.878c62.131,68.62,162.744,69.713,239.933,28.733
			c4.373-2.29,1.385-8.527-3.114-7.008c-77.592,31.159-163.659,34.43-226.581-29.316c-58.319-59.747-31.894-128.483,10.275-187.907
			c4.52-6.268-5.33-13.371-9.85-7.102C166.722,167.245,146.81,200.524,140.995,237.845z"/>
		<path fill="#FAE282" d="M207.809,320.731c29.779,27.598,72.026,36.964,111.409,40.862c22.898,2.221,71.206,5.068,85.558-18.609
			c1.291-1.791-0.624-3.854-2.937-3.479c-58.805,20.206-130.334,15.586-181.752-23.532c-56.916-43.763-25.014-103.106,8.563-149.672
			c4.842-6.715-5.455-14.141-10.297-7.425C180.902,210.816,152.852,269.533,207.809,320.731z"/>
		<path fill="#FAE282" d="M156.488,145.574c11.581-6.623,55.289-37.036,69.344-23.497c6.519,6.061,8.84,17.942,10.985,26.295
			c4.237,13.943,8.151,28.334,13.159,42.154c1.518,4.499,8.652,2.156,7.903-2.467c-4.84-22.545-6.585-62.596-26.213-78.79
			c-20.846-16.394-64.106,14.343-80.83,23.38C142.858,137.106,148.834,149.583,156.488,145.574z"/>
	</g>
</g>
</svg>
