<?xml version="1.0" encoding="utf-8"?>
<!-- Generator: Adobe Illustrator 16.0.0, SVG Export Plug-In . SVG Version: 6.00 Build 0)  -->
<!DOCTYPE svg PUBLIC "-//W3C//DTD SVG 1.1//EN" "http://www.w3.org/Graphics/SVG/1.1/DTD/svg11.dtd">
<svg version="1.1" xmlns="http://www.w3.org/2000/svg" xmlns:xlink="http://www.w3.org/1999/xlink" x="0px" y="0px" width="2560px"
	 height="1440px" viewBox="0 0 2560 1440" enable-background="new 0 0 2560 1440" xml:space="preserve">
<g id="Layer_5">
	<g id="Layer_4">
		<rect y="7.317" fill="#FFFFFF" width="2560" height="1451"/>
	</g>
</g>
<g id="Layer_1">
	<g id="Layer_1_1_" display="none">
		
			<image display="inline" overflow="visible" enable-background="new    " width="800" height="600" xlink:href="../../../../../../Desktop/a-simple-contact-page-large.png"  transform="matrix(2.2172 0 0 2.2172 68.5254 63.0488)">
		</image>
	</g>
	<g id="Layer_2">
		<g id="XMLID_1_">
			<g>
				<polygon fill="#FFDA57" points="198.501,698.375 192.337,698.375 135.221,661.175 134.74,660.375 137.918,658.375 				"/>
				<path fill="#FFC85B" d="M159.108,719.875c-5.779,3.5-5.779,7.7-5.779,7.7c-0.289-0.1-0.578-0.3-0.963-0.6
					c-8.38-5.101-50.374-30.5-57.308-33.9c-5.297-3.8-3.371-6.3-3.371-6.3l43.053-26.5l0.481,0.8l57.116,37.3
					C192.337,698.375,164.887,716.375,159.108,719.875z"/>
			</g>
			<g>
				<path fill="none" stroke="#454B6B" stroke-miterlimit="10" d="M153.232,727.575l45.269-29.2l-60.583-40l-3.179,2l-43.053,26.5
					c0,0-1.926,2.5,3.371,6.3c6.935,3.4,48.928,28.801,57.308,33.9C152.751,727.275,153.04,727.476,153.232,727.575
					c0.385,0.2,0.481,0.3,0.481,0.3"/>
				<path fill="none" stroke="#454B6B" stroke-miterlimit="10" d="M153.232,727.575c0,0,0-4.2,5.779-7.7s33.229-21.5,33.229-21.5"/>
				<polyline fill="none" stroke="#454B6B" stroke-miterlimit="10" points="135.221,661.175 192.337,698.375 198.501,698.375 				
					"/>
				<line fill="none" stroke="#454B6B" stroke-miterlimit="10" x1="107.097" y1="688.375" x2="159.108" y2="719.875"/>
			</g>
		</g>
		<g id="XMLID_2_">
			<g>
				<polygon fill="#FFDA57" points="2488.025,678.976 2481.86,678.976 2424.745,641.675 2424.263,640.875 2427.442,638.976 				"/>
				<path fill="#FFC85B" d="M2448.632,700.476c-5.779,3.5-5.779,7.699-5.779,7.699c-0.289-0.1-0.578-0.3-0.963-0.6
					c-8.38-5.1-50.374-30.5-57.308-33.9c-5.298-3.8-3.371-6.3-3.371-6.3l43.052-26.5l0.482,0.8l57.115,37.301
					C2481.86,678.976,2454.411,696.976,2448.632,700.476z"/>
			</g>
			<g>
				<path fill="none" stroke="#454B6B" stroke-miterlimit="10" d="M2442.757,708.175l45.269-29.199l-60.583-40l-3.178,2
					l-43.054,26.5c0,0-1.927,2.5,3.371,6.3c6.935,3.399,48.928,28.8,57.308,33.899
					C2442.275,707.775,2442.563,707.976,2442.757,708.175c0.289,0.2,0.481,0.301,0.481,0.301"/>
				<path fill="none" stroke="#454B6B" stroke-miterlimit="10" d="M2442.757,708.175c0,0,0-4.199,5.779-7.699
					s33.229-21.5,33.229-21.5"/>
				<polyline fill="none" stroke="#454B6B" stroke-miterlimit="10" points="2424.745,641.675 2481.86,678.976 2488.025,678.976 				
					"/>
				<line fill="none" stroke="#454B6B" stroke-miterlimit="10" x1="2396.621" y1="668.976" x2="2448.632" y2="700.476"/>
			</g>
		</g>
		<g id="XMLID_3_">
			<g>
				<polygon fill="#FFDA57" points="2442.275,275.075 2436.11,275.075 2378.995,237.875 2378.513,237.075 2381.692,235.075 				"/>
				<path fill="#FFC85B" d="M2402.882,296.575c-5.779,3.5-5.779,7.7-5.779,7.7c-0.289-0.1-0.578-0.3-0.963-0.6
					c-8.38-5.1-50.374-30.5-57.308-33.9c-5.298-3.8-3.371-6.3-3.371-6.3l43.052-26.5l0.482,0.8l57.115,37.3
					C2436.11,275.075,2408.661,293.075,2402.882,296.575z"/>
			</g>
			<g>
				<path fill="none" stroke="#454B6B" stroke-miterlimit="10" d="M2397.103,304.275l45.269-29.2l-60.583-40l-3.178,2l-43.054,26.5
					c0,0-1.927,2.5,3.371,6.3c6.935,3.4,48.929,28.8,57.308,33.9C2396.525,303.975,2396.813,304.075,2397.103,304.275
					c0.289,0.2,0.482,0.3,0.482,0.3"/>
				<path fill="none" stroke="#454B6B" stroke-miterlimit="10" d="M2397.103,304.275c0,0,0-4.2,5.779-7.7s33.229-21.5,33.229-21.5"
					/>
				<polyline fill="none" stroke="#454B6B" stroke-miterlimit="10" points="2378.995,237.875 2436.11,275.075 2442.275,275.075 				
					"/>
				<line fill="none" stroke="#454B6B" stroke-miterlimit="10" x1="2350.871" y1="265.075" x2="2402.882" y2="296.575"/>
			</g>
		</g>
		<g id="XMLID_4_">
			<g>
				<polygon fill="#FFDA57" points="2416.076,1121.675 2409.913,1121.675 2352.798,1084.476 2352.316,1083.675 2355.494,1081.675 
									"/>
				<path fill="#FFC85B" d="M2376.684,1143.175c-5.778,3.5-5.778,7.7-5.778,7.7c-0.289-0.2-0.579-0.3-0.964-0.6
					c-8.38-5.101-50.373-30.5-57.308-33.9c-5.298-3.8-3.371-6.3-3.371-6.3l43.054-26.5l0.481,0.8l57.115,37.3
					C2409.913,1121.675,2382.463,1139.675,2376.684,1143.175z"/>
			</g>
			<g>
				<path fill="none" stroke="#454B6B" stroke-miterlimit="10" d="M2370.905,1150.875l45.268-29.2l-60.582-40l-3.179,2l-43.053,26.5
					c0,0-1.926,2.5,3.371,6.301c6.935,3.399,48.929,28.8,57.308,33.899C2370.326,1150.575,2370.616,1150.775,2370.905,1150.875
					c0.288,0.2,0.481,0.3,0.481,0.3"/>
				<path fill="none" stroke="#454B6B" stroke-miterlimit="10" d="M2370.905,1150.875c0,0,0-4.2,5.778-7.7
					c5.779-3.5,33.229-21.5,33.229-21.5"/>
				<polyline fill="none" stroke="#454B6B" stroke-miterlimit="10" points="2352.798,1084.476 2409.913,1121.675 2416.076,1121.675 
									"/>
				<line fill="none" stroke="#454B6B" stroke-miterlimit="10" x1="2324.673" y1="1111.675" x2="2376.684" y2="1143.175"/>
			</g>
		</g>
		<g id="XMLID_5_">
			<g>
				<polygon fill="#FFDA57" points="309.071,1084.976 302.907,1084.976 245.696,1047.775 245.311,1046.976 248.489,1044.976 				"/>
				<path fill="#FFC85B" d="M269.678,1106.476c-5.779,3.5-5.779,7.699-5.779,7.699c-0.289-0.199-0.578-0.3-0.963-0.6
					c-8.379-5.1-50.373-30.5-57.308-33.9c-5.297-3.8-3.371-6.3-3.371-6.3l43.054-26.5l0.481,0.8l57.115,37.301
					C302.907,1084.976,275.457,1102.976,269.678,1106.476z"/>
			</g>
			<g>
				<path fill="none" stroke="#454B6B" stroke-miterlimit="10" d="M263.803,1114.175l45.269-29.199l-60.583-40l-3.178,2
					l-43.054,26.5c0,0-1.926,2.5,3.371,6.3c6.935,3.399,48.929,28.8,57.308,33.899
					C263.225,1113.875,263.61,1114.075,263.803,1114.175c0.386,0.2,0.481,0.301,0.481,0.301"/>
				<path fill="none" stroke="#454B6B" stroke-miterlimit="10" d="M263.803,1114.175c0,0,0-4.199,5.779-7.699
					c5.779-3.5,33.229-21.5,33.229-21.5"/>
				<polyline fill="none" stroke="#454B6B" stroke-miterlimit="10" points="245.696,1047.775 302.907,1084.976 309.071,1084.976 
									"/>
				<line fill="none" stroke="#454B6B" stroke-miterlimit="10" x1="217.667" y1="1074.976" x2="269.678" y2="1106.476"/>
			</g>
		</g>
		<g id="XMLID_6_">
			<g>
				<polygon fill="#FFDA57" points="335.366,294.475 329.202,294.475 271.99,257.275 271.604,256.475 274.783,254.475 				"/>
				<path fill="#FFC85B" d="M295.973,315.975c-5.779,3.5-5.779,7.7-5.779,7.7c-0.29-0.1-0.578-0.3-0.963-0.6
					c-8.379-5.1-50.374-30.5-57.308-33.9c-5.298-3.8-3.371-6.3-3.371-6.3l43.053-26.5l0.481,0.8l57.116,37.3
					C329.202,294.475,301.751,312.475,295.973,315.975z"/>
			</g>
			<g>
				<path fill="none" stroke="#454B6B" stroke-miterlimit="10" d="M290.097,323.675l45.269-29.2l-60.583-40l-3.179,2l-43.053,26.5
					c0,0-1.927,2.5,3.371,6.3c6.934,3.4,48.928,28.8,57.308,33.9C289.616,323.375,289.904,323.575,290.097,323.675
					c0.385,0.2,0.482,0.3,0.482,0.3"/>
				<path fill="none" stroke="#454B6B" stroke-miterlimit="10" d="M290.097,323.675c0,0,0-4.2,5.779-7.7
					c5.779-3.5,33.229-21.5,33.229-21.5"/>
				<polyline fill="none" stroke="#454B6B" stroke-miterlimit="10" points="271.99,257.275 329.202,294.475 335.366,294.475 				"/>
				<line fill="none" stroke="#454B6B" stroke-miterlimit="10" x1="243.962" y1="284.475" x2="295.973" y2="315.975"/>
			</g>
		</g>
	</g>
	<g id="Layer_3" display="none">
		<path display="inline" fill="none" stroke="#2E3192" stroke-miterlimit="10" d="M349.6,874c0,0-12.9-7.5,0-15s38.4-20.5,38.4-20.5
			s6.5-6,15.5,0S423,851,423,851s10,6.5,0,12.5s-29,17-29,17l-9.9,7c0,0-11.7,3.5-23.1-5S349.6,874,349.6,874z"/>
	</g>
	<path fill="#1B325E" d="M266.768,405.896"/>
	<path fill="none" stroke="#1B325E" stroke-width="2" stroke-miterlimit="10" d="M288.802,476.988c0,0,4.573,4.573,17.878-4.158
		c13.303-8.73,28.269-17.877,35.337-21.619c7.069-3.74,0-9.145,0-9.145s-16.63-16.628-27.022-14.551
		c-10.393,2.076-38.25,20.787-38.25,20.787l-6.235,4.547c0,0-10.393,5.014-3.325,9.588c7.067,4.573,7.067,4.573,7.067,4.573l0,0
		L288.802,476.988z"/>
	<circle fill="#1B325E" stroke="#232C5A" stroke-width="2" stroke-miterlimit="10" cx="285.06" cy="462.852" r="2.079"/>
	<line fill="none" stroke="#1B325E" stroke-miterlimit="10" x1="270.925" y1="458.693" x2="291.712" y2="473.244"/>
	<line fill="none" stroke="#1B325E" stroke-miterlimit="10" x1="301.273" y1="470.336" x2="340.77" y2="446.222"/>
	<polygon fill="#A1DBE1" stroke="#232C5A" stroke-miterlimit="10" points="280.176,453.785 298.908,466.35 337.096,443.801 
		315.364,431.311 	"/>
	<rect x="1392.34" y="515.126" fill="#FFFFFF" width="163.353" height="166"/>
</g>
<g id="Layer_2_1_">
	<path fill="#1B325E" d="M335.783,782.935"/>
	<path fill="none" stroke="#1B325E" stroke-width="2" stroke-miterlimit="10" d="M313.749,854.026c0,0-4.573,4.572-17.878-4.158
		c-13.303-8.73-28.269-17.877-35.337-21.619c-7.069-3.74,0-9.145,0-9.145s16.63-16.629,27.022-14.551
		c10.393,2.076,38.25,20.787,38.25,20.787l6.235,4.547c0,0,10.393,5.014,3.325,9.588c-7.067,4.572-7.067,4.572-7.067,4.572l0,0
		L313.749,854.026z"/>
	<circle fill="#1B325E" stroke="#232C5A" stroke-width="2" stroke-miterlimit="10" cx="317.491" cy="839.89" r="2.079"/>
	<line fill="none" stroke="#1B325E" stroke-miterlimit="10" x1="331.626" y1="835.731" x2="310.839" y2="850.282"/>
	<line fill="none" stroke="#1B325E" stroke-miterlimit="10" x1="301.277" y1="847.374" x2="261.781" y2="823.259"/>
	<polygon fill="#A1DBE1" stroke="#232C5A" stroke-miterlimit="10" points="322.375,830.823 303.643,843.388 265.455,820.839 
		287.187,808.349 	"/>
	<path fill="none" stroke="#1B325E" stroke-width="2" stroke-miterlimit="10" d="M2236.695,496.454c0,0,7.018,7.017,27.435-6.381
		c20.414-13.397,43.381-27.434,54.228-33.177c10.849-5.739,0-14.033,0-14.033s-25.52-25.518-41.468-22.329
		c-15.948,3.187-58.698,31.899-58.698,31.899l-9.568,6.978c0,0-15.948,7.694-5.103,14.714c10.846,7.017,10.846,7.017,10.846,7.017
		l0,0L2236.695,496.454z"/>
	<circle fill="#1B325E" stroke="#232C5A" stroke-width="2" stroke-miterlimit="10" cx="2230.953" cy="474.76" r="3.191"/>
	<line fill="none" stroke="#1B325E" stroke-miterlimit="10" x1="2209.262" y1="468.379" x2="2241.161" y2="490.708"/>
	<line fill="none" stroke="#1B325E" stroke-miterlimit="10" x1="2255.834" y1="486.245" x2="2316.443" y2="449.239"/>
	<polygon fill="#A1DBE1" stroke="#232C5A" stroke-miterlimit="10" points="2223.458,460.847 2252.204,480.128 2310.806,445.525 
		2277.457,426.358 	"/>
	<path fill="none" stroke="#1B325E" stroke-width="2" stroke-miterlimit="10" d="M2359.885,956.024c0,0-7.018,7.017-27.435-6.381
		c-20.414-13.397-43.381-27.434-54.228-33.177c-10.849-5.739,0-14.033,0-14.033s25.52-25.518,41.468-22.329
		c15.948,3.187,58.698,31.899,58.698,31.899l9.568,6.978c0,0,15.948,7.694,5.103,14.714c-10.846,7.017-10.846,7.017-10.846,7.017
		l0,0L2359.885,956.024z"/>
	<circle fill="#1B325E" stroke="#232C5A" stroke-width="2" stroke-miterlimit="10" cx="2365.627" cy="934.33" r="3.191"/>
	<line fill="none" stroke="#1B325E" stroke-miterlimit="10" x1="2387.318" y1="927.949" x2="2355.419" y2="950.278"/>
	<line fill="none" stroke="#1B325E" stroke-miterlimit="10" x1="2340.746" y1="945.815" x2="2280.137" y2="908.81"/>
	<polygon fill="#A1DBE1" stroke="#232C5A" stroke-miterlimit="10" points="2373.122,920.417 2344.376,939.698 2285.774,905.096 
		2319.123,885.929 	"/>
</g>
<g id="Layer_3_1_" display="none">
	<g display="inline">
		<path fill="#BDC3C7" d="M2272.015,656.359c-0.809-0.2-1.302-1.018-1.102-1.826l7.247-29.27c0.2-0.809,1.019-1.302,1.826-1.102
			s1.302,1.018,1.101,1.826l-7.247,29.271C2273.64,656.066,2272.821,656.559,2272.015,656.359"/>
		<path fill="#ECF0F1" d="M2285.102,622.322c-0.601,2.425-3.053,3.904-5.478,3.304c-2.426-0.601-3.904-3.053-3.304-5.479
			c0.601-2.425,3.053-3.904,5.478-3.303C2284.224,617.445,2285.702,619.897,2285.102,622.322"/>
		<path fill="#556080" d="M2328.046,693.533l-61.468-15.221c-6.466-1.602-10.41-8.142-8.81-14.607l0,0
			c1.602-6.466,8.142-10.41,14.607-8.809l61.469,15.22c6.465,1.601,10.409,8.141,8.809,14.607l0,0
			C2341.052,691.189,2334.513,695.133,2328.046,693.533"/>
		<g>
			<path fill="#8697CB" d="M2329.453,669.029l-52.687-13.046l13.387-13.784c0.747-0.768,1.847-1.083,2.889-0.825l28.834,7.14
				c1.042,0.258,1.867,1.049,2.17,2.078L2329.453,669.029z"/>
			<path fill="#8697CB" d="M2281.185,669.503c-0.8,3.233-4.07,5.206-7.303,4.405c-3.233-0.8-5.205-4.07-4.404-7.303
				c0.801-3.233,4.07-5.206,7.304-4.405C2280.014,663,2281.986,666.27,2281.185,669.503"/>
			<path fill="#8697CB" d="M2306.065,675.664c-0.801,3.233-4.071,5.205-7.304,4.405c-3.233-0.8-5.206-4.07-4.405-7.304
				c0.801-3.233,4.071-5.205,7.304-4.405C2304.894,669.161,2306.865,672.431,2306.065,675.664"/>
			<path fill="#8697CB" d="M2330.945,681.825c-0.801,3.232-4.071,5.205-7.304,4.404c-3.233-0.8-5.205-4.071-4.404-7.304
				s4.07-5.205,7.304-4.405C2329.773,675.321,2331.746,678.591,2330.945,681.825"/>
		</g>
		<g>
			<path fill="#556080" d="M2325.522,655.63l1.966,6.699l18.051,4.47c0.808,0.2,1.626-0.293,1.826-1.101l0.725-2.927
				c0.2-0.808-0.294-1.626-1.102-1.826L2325.522,655.63L2325.522,655.63z"/>
			<path fill="#556080" d="M2313.703,657.363l-18.567-4.598c-0.808-0.199-1.302-1.018-1.102-1.826s1.019-1.301,1.826-1.101
				l18.567,4.598c0.809,0.2,1.302,1.018,1.102,1.827C2315.329,657.069,2314.511,657.563,2313.703,657.363"/>
		</g>
	</g>
	<path display="inline" fill="#414870" stroke="#231F20" stroke-width="0.25" stroke-miterlimit="10" d="M2310.522,363.689
		c3.443-3.444,3.443-9.048,0-12.492l-9.994-9.993c-0.688-0.689-1.807-0.69-2.498,0c-0.69,0.691-0.689,1.81,0,2.498l9.993,9.994
		c2.066,2.065,2.066,5.429,0,7.495l-42.472,42.472c-2.065,2.065-5.429,2.065-7.494-0.001l-9.994-9.993
		c-0.688-0.689-1.807-0.691-2.498,0c-0.69,0.69-0.689,1.81,0,2.498l9.993,9.994c3.444,3.443,9.048,3.443,12.492,0"/>
	<path display="inline" fill="#414870" stroke="#231F20" stroke-width="0.25" stroke-miterlimit="10" d="M2229.327,324.965
		c-2.066,2.066-2.066,5.43,0,7.495c1.626,1.627,4.047,1.951,6.014,1.019l2.808,2.807c-4.578,5.718-5.882,14.986-1.243,21.074
		l-8.828,8.828c-3.444,3.443-3.443,9.048,0,12.491l11.24,11.245l-2.729,2.729c-1.97-0.934-4.39-0.607-6.016,1.019
		c-2.066,2.066-2.066,5.43,0,7.495c2.066,2.066,5.429,2.066,7.495,0c1.626-1.626,1.952-4.046,1.019-6.016l3.98-3.979
		c0.69-0.691,0.689-1.809,0-2.499l-12.491-12.491c-2.066-2.065-2.066-5.428,0-7.494l9.993-9.993c0.69-0.691,0.689-1.81,0-2.499
		c-4.924-4.924-3.372-14.116,1.249-18.737c3.25-3.25,8.486-4.896,13.034-4.1c0.959,0.167,1.876-0.472,2.046-1.435
		c0.167-0.961-0.474-1.877-1.436-2.044c-5.134-0.902-10.754,0.63-14.813,3.912l-2.81-2.81c0.932-1.969,0.607-4.39-1.02-6.017
		C2234.756,322.899,2231.393,322.899,2229.327,324.965"/>
	
		<circle display="inline" fill="#414870" stroke="#231F20" stroke-width="0.25" stroke-miterlimit="10" cx="2233.074" cy="328.713" r="1.766"/>
	
		<circle display="inline" fill="#414870" stroke="#231F20" stroke-width="0.25" stroke-miterlimit="10" cx="2234.32" cy="397.419" r="1.766"/>
	<path display="inline" fill="#414870" stroke="#231F20" stroke-width="0.25" stroke-miterlimit="10" d="M2298.03,326.215
		c-1.627,1.626-1.952,4.046-1.019,6.014l-2.729,2.729l-11.242-11.241c-3.444-3.444-9.048-3.444-12.492,0l-27.481,27.481
		c-0.69,0.69-0.689,1.809,0,2.498s1.807,0.69,2.498-0.001l27.481-27.481c2.066-2.065,5.429-2.065,7.495,0l12.491,12.492
		c0.69,0.689,1.808,0.69,2.498,0l3.979-3.979c1.969,0.935,4.388,0.608,6.015-1.018c2.065-2.066,2.065-5.43,0-7.495
		C2303.459,324.148,2300.097,324.148,2298.03,326.215z M2303.026,331.211c-0.688,0.689-1.81,0.688-2.498,0
		c-0.688-0.688-0.689-1.809,0-2.498s1.811-0.688,2.498,0C2303.715,329.401,2303.717,330.521,2303.026,331.211z"/>
	<path display="inline" fill="#414870" stroke="#231F20" stroke-width="0.25" stroke-miterlimit="10" d="M2280.542,341.204
		c-2.066-2.066-5.428-2.065-7.494,0c-2.066,2.066-2.066,5.429-0.001,7.495c2.067,2.066,5.429,2.066,7.495,0
		S2282.608,343.271,2280.542,341.204z M2275.545,346.201c-0.688-0.688-0.688-1.809,0.001-2.498s1.81-0.688,2.498-0.001
		c0.688,0.688,0.689,1.81,0,2.499S2276.233,346.89,2275.545,346.201z"/>
	<path display="inline" fill="#414870" stroke="#231F20" stroke-width="0.25" stroke-miterlimit="10" d="M2253.061,368.686
		c-2.066-2.065-5.429-2.065-7.494,0.001c-2.066,2.066-2.067,5.428-0.001,7.494s5.429,2.066,7.495,0
		C2255.126,374.114,2255.127,370.753,2253.061,368.686z M2250.562,373.683c-0.689,0.689-1.81,0.688-2.498,0
		c-0.688-0.688-0.688-1.809,0.001-2.498s1.81-0.688,2.497-0.001C2251.25,371.872,2251.252,372.992,2250.562,373.683z"/>
	<path display="inline" fill="#414870" stroke="#231F20" stroke-width="0.25" stroke-miterlimit="10" d="M2263.054,383.676
		l4.997,4.997c0.688,0.688,1.808,0.69,2.498,0l22.484-22.485c0.691-0.69,0.689-1.809,0-2.498l-4.996-4.997
		c-0.689-0.688-1.808-0.69-2.499,0l-22.484,22.485C2262.363,381.868,2262.364,382.986,2263.054,383.676z M2281.791,367.437
		l4.997-4.996l2.498,2.498l-4.996,4.996L2281.791,367.437z M2274.296,374.932l4.997-4.997l2.498,2.499l-4.996,4.996
		L2274.296,374.932z M2266.802,382.427l4.996-4.997l2.498,2.499l-4.996,4.996L2266.802,382.427z"/>
</g>
<g id="Layer_4_1_" display="none">
	<path display="inline" fill="none" stroke="#BBBECC" stroke-width="2" stroke-miterlimit="10" d="M1339.016,730.277
		c1.503-5.766-1.952-11.659-7.719-13.163L1270.7,701.32c-5.767-1.503-11.66,1.953-13.163,7.719l0,0
		c-1.503,5.767,1.953,11.661,7.72,13.163l60.597,15.797C1331.62,739.5,1337.513,736.045,1339.016,730.277L1339.016,730.277z"/>
	<path display="inline" fill="none" stroke="#BBBECC" stroke-width="2" stroke-miterlimit="10" d="M1273.836,702.137l15.119-15.171
		c0,0,0.495-1.024,16.358,3.241c15.766,4.183,14.628,3.622,14.628,3.622s1.6,0.133,2.403,2.873s5.174,19.428,5.174,19.428"/>
	<path display="inline" fill="none" stroke="#BBBECC" stroke-width="2" stroke-miterlimit="10" d="M1323.588,700.943l0.568,0.552
		l18.824,4.253c0,0,3.157,1.125,3.22,3.267c0.099,3.354,2.363,4.8-5.125,2.474c-4.197-1.303-15.87-4.15-15.87-4.15"/>
	
		<line display="inline" fill="none" stroke="#BBBECC" stroke-width="2" stroke-miterlimit="10" x1="1292.025" y1="697.482" x2="1311.899" y2="702.716"/>
	<g display="inline">
		<g>
			<path fill="#FFC85B" d="M2254.621,706.276c-5.386-3.932-10.772-7.863-16.158-11.795c-1.127-0.823-2.255-1.646-3.382-2.469
				c-0.326-0.238-0.652-0.477-0.979-0.715c-0.697-0.509-0.088,0.59-0.026,0.219c0.557-3.34,1.113-6.679,1.67-10.019
				c0.541-3.248,1.082-6.495,1.623-9.743c0.095-0.57-0.623,0.022,0.714-0.434c1.432-0.486,2.862-0.974,4.294-1.461
				c6.485-2.208,12.97-4.415,19.455-6.623c0.759-0.258,0.434-1.466-0.332-1.205c-8.271,2.815-16.544,5.632-24.815,8.447
				c-0.192,0.065-0.4,0.219-0.437,0.437c-1.139,6.833-2.277,13.666-3.415,20.499c-0.051,0.304,0.039,0.524,0.287,0.706
				c6.957,5.078,13.913,10.156,20.87,15.235C2254.643,707.832,2255.266,706.747,2254.621,706.276L2254.621,706.276z"/>
		</g>
	</g>
	<g display="inline">
		<g>
			<path fill="#FFC85B" d="M2261.223,663.086c6.615,5.115,13.23,10.231,19.846,15.348c1.163,0.899,0.778-0.207,0.584,0.962
				c-0.362,2.173-0.725,4.346-1.087,6.52c-0.724,4.346-1.448,8.692-2.172,13.039c0.076-0.459,0.588-0.428-0.299-0.153
				c-0.655,0.202-1.31,0.405-1.964,0.607c-2.431,0.752-4.86,1.504-7.291,2.256c-4.658,1.442-9.316,2.884-13.975,4.325
				c-1.347,0.417,0.232-0.143,0.054,0.933c0.104-0.633,0.21-1.265,0.315-1.897c0.42-2.52,0.84-5.04,1.26-7.56
				c0.646-3.879,1.292-7.757,1.938-11.635c0.05-0.298-0.036-0.531-0.287-0.706c-6.993-4.86-13.986-9.721-20.979-14.582
				c-0.664-0.461-1.288,0.623-0.631,1.08c6.787,4.718,13.575,9.436,20.362,14.153c0.762,0.528-0.835,6.715-1.128,8.474
				c-0.689,4.134-1.378,8.268-2.066,12.401c-0.074,0.442,0.273,0.922,0.769,0.769c8.228-2.546,16.454-5.092,24.681-7.638
				c0.193-0.06,0.401-0.224,0.437-0.437c1.139-6.833,2.276-13.665,3.415-20.498c0.034-0.203,0.022-0.467-0.16-0.608
				c-6.912-5.346-13.824-10.691-20.736-16.037C2261.478,661.715,2260.586,662.593,2261.223,663.086L2261.223,663.086z"/>
		</g>
	</g>
	<g display="inline">
		<g>
			<path fill="#FFC85B" d="M2257.996,686.267c8.19-2.328,16.381-4.655,24.571-6.983c0.774-0.22,0.444-1.426-0.332-1.205
				c-8.19,2.328-16.381,4.655-24.571,6.983C2256.89,685.281,2257.219,686.487,2257.996,686.267L2257.996,686.267z"/>
		</g>
	</g>
	<g display="inline">
		<g>
			<path fill="#FFC85B" d="M2259.101,674.168c-1.897-0.569-4.099-1.394-5.458-2.886c-0.352-0.386-0.527-0.88-0.294-1.369
				c0.414-0.869,1.845-0.521,2.535-0.2c1.701,0.791,2.738,3.081,2.448,4.892c-0.127,0.788,1.078,1.126,1.205,0.332
				c0.372-2.32-0.686-4.682-2.581-6.044c-1.571-1.129-4.798-1.184-4.965,1.305c-0.198,2.943,4.572,4.514,6.777,5.176
				C2259.543,675.605,2259.871,674.399,2259.101,674.168z"/>
		</g>
	</g>
	<g display="inline">
		<g>
			<path fill="#FFC85B" d="M2259.577,675.503c2.728,0.104,7.655,0.159,9.206-2.585c1.413-2.5-1.659-3.947-3.692-3.905
				c-2.969,0.061-5.6,2.929-6.116,5.699c-0.146,0.788,1.058,1.124,1.205,0.332c0.474-2.539,2.699-4.735,5.344-4.79
				c1.091-0.022,2.75,0.707,2.181,2.033c-0.264,0.613-1.002,0.95-1.582,1.179c-2.008,0.791-4.407,0.869-6.545,0.787
				C2258.771,674.222,2258.773,675.473,2259.577,675.503z"/>
		</g>
	</g>
	<g display="inline">
		<g>
			<path fill="#FFC85B" d="M160.682,918.402c-4.781-4.648-9.562-9.298-14.342-13.947c-1-0.973-2.001-1.946-3.001-2.919
				c-0.29-0.281-0.579-0.563-0.869-0.845c-0.57-0.554-0.18,0.396-0.081,0.082c1.02-3.229,2.04-6.457,3.059-9.686
				c0.992-3.14,1.983-6.278,2.975-9.418c0.16-0.506-0.512-0.01,0.825-0.264c1.485-0.281,2.971-0.563,4.457-0.844
				c6.73-1.275,13.461-2.551,20.192-3.826c0.792-0.149,0.456-1.354-0.332-1.205c-8.585,1.627-17.17,3.253-25.755,4.88
				c-0.215,0.041-0.375,0.24-0.437,0.437c-2.086,6.605-4.173,13.211-6.259,19.816c-0.066,0.208,0.006,0.458,0.161,0.608
				c6.175,6.005,12.35,12.01,18.524,18.015C160.375,919.849,161.26,918.966,160.682,918.402L160.682,918.402z"/>
		</g>
	</g>
	<g display="inline">
		<g>
			<path fill="#FFC85B" d="M173.285,876.585c5.832,5.993,11.663,11.986,17.494,17.98c1.043,1.072,0.716-0.091,0.356,1.051
				c-0.664,2.101-1.327,4.201-1.991,6.303c-1.327,4.201-2.654,8.403-3.981,12.605c0.243-0.768-1.278-0.107-2.361,0.066
				c-2.512,0.403-5.023,0.807-7.535,1.211c-4.814,0.773-9.629,1.547-14.443,2.32c-1.441,0.23,0.331-0.099,0.038,0.83
				c0.193-0.611,0.386-1.223,0.579-1.834c0.77-2.437,1.539-4.872,2.308-7.309c1.184-3.749,2.368-7.498,3.553-11.247
				c0.065-0.204-0.003-0.462-0.161-0.608c-6.242-5.794-12.483-11.588-18.725-17.383c-0.59-0.547-1.476,0.335-0.884,0.885
				c6.058,5.623,12.116,11.247,18.174,16.871c0.826,0.767-1.795,6.822-2.283,8.363c-1.262,3.996-2.524,7.992-3.786,11.988
				c-0.157,0.497,0.329,0.84,0.769,0.769c8.503-1.366,17.006-2.731,25.508-4.098c0.214-0.034,0.376-0.244,0.437-0.437
				c2.086-6.605,4.173-13.211,6.259-19.816c0.067-0.213-0.009-0.452-0.161-0.608c-6.093-6.263-12.187-12.525-18.28-18.788
				C173.606,875.122,172.723,876.007,173.285,876.585L173.285,876.585z"/>
		</g>
	</g>
	<g display="inline">
		<g>
			<path fill="#FFC85B" d="M166.865,898.999c8.436-1.155,16.872-2.311,25.308-3.466c0.796-0.108,0.456-1.313-0.332-1.205
				c-8.436,1.155-16.872,2.311-25.308,3.466C165.737,897.902,166.077,899.107,166.865,898.999L166.865,898.999z"/>
		</g>
	</g>
	<g display="inline">
		<g>
			<path fill="#FFC85B" d="M169.637,887.226c-1.84-0.85-4.139-2.036-5.173-3.847c-0.338-0.593-0.14-1.101,0.32-1.544
				c0.223-0.215,1.122,0.024,1.368,0.086c0.518,0.13,0.961,0.455,1.345,0.811c1.264,1.171,1.718,3.254,1.222,4.868
				c-0.238,0.772,0.969,1.101,1.205,0.332c0.65-2.113-0.036-4.505-1.543-6.084c-1.327-1.39-4.217-2.09-5.163,0.031
				c-1.301,2.921,3.771,5.494,5.788,6.427C169.732,888.641,170.368,887.563,169.637,887.226z"/>
		</g>
	</g>
	<g display="inline">
		<g>
			<path fill="#FFC85B" d="M169.777,888.564c2.759,0.499,7.793,1.3,9.661-1.408c1.637-2.373-1.474-4.055-3.421-4.24
				c-2.93-0.279-5.791,2.268-6.676,4.88c-0.26,0.766,0.948,1.091,1.205,0.332c0.84-2.478,3.556-4.383,6.196-3.853
				c2.554,0.514,2.004,2.621,0.021,3.172c-2.072,0.575-4.56,0.29-6.653-0.088C169.321,887.217,168.984,888.421,169.777,888.564z"/>
		</g>
	</g>
	<g display="inline">
		<g>
			<path fill="#FFC85B" d="M142.055,514.587c-5.962-2.987-11.924-5.974-17.887-8.961c-1.248-0.625-2.496-1.25-3.744-1.875
				c-0.361-0.181-0.722-0.362-1.083-0.542c-0.699-0.35-0.08,0.43-0.08,0.111c-0.003-3.386-0.007-6.771-0.011-10.157
				c-0.003-3.292-0.007-6.584-0.011-9.877c0-0.544-0.535,0.147,0.682-0.508c1.331-0.717,2.662-1.435,3.993-2.152
				c6.031-3.25,12.061-6.5,18.092-9.75c0.71-0.382,0.079-1.461-0.631-1.079c-7.692,4.145-15.384,8.29-23.076,12.436
				c-0.192,0.103-0.31,0.325-0.31,0.54c0.007,6.927,0.015,13.854,0.022,20.781c0,0.209,0.116,0.443,0.31,0.54
				c7.701,3.858,15.402,7.716,23.103,11.574C142.142,516.026,142.775,514.948,142.055,514.587L142.055,514.587z"/>
		</g>
	</g>
	<g display="inline">
		<g>
			<path fill="#FFC85B" d="M141.375,470.885c7.37,3.951,14.74,7.902,22.11,11.853c1.307,0.701,0.683-0.304,0.684,0.886
				c0.002,2.203,0.005,4.406,0.007,6.609c0.004,4.406,0.009,8.813,0.014,13.219c0-0.539,0.415-0.533-0.369-0.139
				c-0.612,0.308-1.224,0.616-1.836,0.924c-2.272,1.144-4.545,2.287-6.817,3.431c-4.355,2.192-8.711,4.384-13.067,6.576
				c-1.29,0.649,0.261-0.189,0.262,0.819c-0.001-0.641-0.001-1.282-0.002-1.923c-0.003-2.555-0.005-5.109-0.008-7.664
				c-0.004-3.932-0.009-7.863-0.012-11.795c0-0.205-0.115-0.448-0.31-0.54c-7.701-3.637-15.402-7.274-23.103-10.911
				c-0.725-0.342-1.359,0.735-0.631,1.079c7.475,3.53,14.949,7.061,22.423,10.59c1.074,0.507,0.377,7.04,0.379,8.653
				c0.004,4.191,0.009,8.381,0.013,12.572c0,0.496,0.524,0.749,0.94,0.54c7.692-3.872,15.385-7.743,23.077-11.615
				c0.193-0.097,0.31-0.33,0.31-0.54c-0.007-6.927-0.015-13.854-0.022-20.781c0-0.214-0.117-0.437-0.31-0.54
				c-7.701-4.128-15.402-8.257-23.103-12.385C141.296,469.425,140.665,470.504,141.375,470.885L141.375,470.885z"/>
		</g>
	</g>
	<g display="inline">
		<g>
			<path fill="#FFC85B" d="M142.032,494.222c7.692-3.65,15.385-7.301,23.077-10.952c0.728-0.345,0.093-1.423-0.631-1.079
				c-7.692,3.65-15.385,7.301-23.077,10.952C140.673,493.488,141.308,494.566,142.032,494.222L142.032,494.222z"/>
		</g>
	</g>
	<g display="inline">
		<g>
			<path fill="#FFC85B" d="M141.004,482.131c-1.57-0.198-3.942-0.718-5.502-1.719c-0.392-0.252-0.73-0.593-0.852-1.051
				c-0.28-1.051,1.119-1.221,1.82-1.214c2.206,0.02,3.881,2.619,3.909,4.609c0.011,0.805,1.261,0.807,1.25,0
				c-0.036-2.503-1.718-4.814-4.058-5.663c-1.956-0.71-4.499,0.254-4.127,2.601c0.253,1.598,2.389,2.388,3.689,2.83
				c1.248,0.424,2.564,0.692,3.871,0.857C141.802,483.482,141.792,482.231,141.004,482.131z"/>
		</g>
	</g>
	<g display="inline">
		<g>
			<path fill="#FFC85B" d="M141.656,483.38c2.79-0.358,7.637-1.083,8.766-4.112c1.009-2.707-2.394-3.568-4.333-3.202
				c-2.929,0.553-5.023,3.875-5.058,6.688c-0.01,0.807,1.24,0.806,1.25,0c0.03-2.448,1.767-4.826,4.14-5.483
				c1.092-0.303,2.785-0.074,2.858,1.284c0.035,0.658-0.591,1.178-1.071,1.514c-1.775,1.245-4.752,1.829-6.552,2.06
				C140.868,482.231,140.858,483.483,141.656,483.38z"/>
		</g>
	</g>
</g>
</svg>
