<?xml version="1.0" encoding="utf-8"?>
<!-- Generator: Adobe Illustrator 16.0.0, SVG Export Plug-In . SVG Version: 6.00 Build 0)  -->
<!DOCTYPE svg PUBLIC "-//W3C//DTD SVG 1.1//EN" "http://www.w3.org/Graphics/SVG/1.1/DTD/svg11.dtd">
<svg version="1.1" xmlns="http://www.w3.org/2000/svg" xmlns:xlink="http://www.w3.org/1999/xlink" x="0px" y="0px" width="2560px"
	 height="1440px" viewBox="0 0 2560 1440" style="enable-background:new 0 0 2560 1440;" xml:space="preserve">
<style type="text/css">
<![CDATA[
	.st0{fill:#FFC85B;}
	.st1{fill:#FFDA57;}
	.st2{fill:#FFFFFF;}
	.st3{fill:none;stroke:#454B6B;stroke-miterlimit:10;}
	.st4{display:none;}
	.st5{display:inline;fill:none;stroke:#2E3192;stroke-miterlimit:10;}
]]>
</style>
<g id="Layer_1" class="st4">
	
		<image style="display:inline;overflow:visible;" width="800" height="600" xlink:href="../../../../../../Desktop/a-simple-contact-page-large.png"  transform="matrix(2.2172 0 0 2.2172 68.5249 63.0488)">
	</image>
</g>
<g id="Layer_4">
	<rect class="st2" width="2560" height="1451"/>
</g>
<g id="Layer_2">
	<g id="XMLID_1_">
		<g>
			<polygon class="st1" points="160.5,655.3 154.1,655.3 94.8,618.1 94.3,617.3 97.6,615.3 			"/>
			<path class="st0" d="M119.6,676.8c-6,3.5-6,7.7-6,7.7c-0.3-0.1-0.6-0.3-1-0.6c-8.7-5.1-52.3-30.5-59.5-33.9
				c-5.5-3.8-3.5-6.3-3.5-6.3l44.7-26.5l0.5,0.8l59.3,37.3C154.1,655.3,125.6,673.3,119.6,676.8z"/>
		</g>
		<g>
			<path class="st3" d="M113.5,684.5l47-29.2l-62.9-40l-3.3,2l-44.7,26.5c0,0-2,2.5,3.5,6.3c7.2,3.4,50.8,28.8,59.5,33.9
				C113,684.2,113.3,684.4,113.5,684.5c0.4,0.2,0.5,0.3,0.5,0.3"/>
			<path class="st3" d="M113.5,684.5c0,0,0-4.2,6-7.7s34.5-21.5,34.5-21.5"/>
			<polyline class="st3" points="94.8,618.1 154.1,655.3 160.5,655.3 			"/>
			<line class="st3" x1="65.6" y1="645.3" x2="119.6" y2="676.8"/>
		</g>
	</g>
	<g id="XMLID_2_">
		<g>
			<polygon class="st1" points="2537.6,635.9 2531.2,635.9 2471.9,598.6 2471.4,597.8 2474.7,595.9 			"/>
			<path class="st0" d="M2496.7,657.4c-6,3.5-6,7.7-6,7.7c-0.3-0.1-0.6-0.3-1-0.6c-8.7-5.1-52.3-30.5-59.5-33.9
				c-5.5-3.8-3.5-6.3-3.5-6.3l44.7-26.5l0.5,0.8l59.3,37.3C2531.2,635.9,2502.7,653.9,2496.7,657.4z"/>
		</g>
		<g>
			<path class="st3" d="M2490.6,665.1l47-29.2l-62.9-40l-3.3,2l-44.7,26.5c0,0-2,2.5,3.5,6.3c7.2,3.4,50.8,28.8,59.5,33.9
				C2490.1,664.7,2490.4,664.9,2490.6,665.1c0.3,0.2,0.5,0.3,0.5,0.3"/>
			<path class="st3" d="M2490.6,665.1c0,0,0-4.2,6-7.7s34.5-21.5,34.5-21.5"/>
			<polyline class="st3" points="2471.9,598.6 2531.2,635.9 2537.6,635.9 			"/>
			<line class="st3" x1="2442.7" y1="625.9" x2="2496.7" y2="657.4"/>
		</g>
	</g>
	<g id="XMLID_3_">
		<g>
			<polygon class="st1" points="2490.1,232 2483.7,232 2424.4,194.8 2423.9,194 2427.2,192 			"/>
			<path class="st0" d="M2449.2,253.5c-6,3.5-6,7.7-6,7.7c-0.3-0.1-0.6-0.3-1-0.6c-8.7-5.1-52.3-30.5-59.5-33.9
				c-5.5-3.8-3.5-6.3-3.5-6.3l44.7-26.5l0.5,0.8l59.3,37.3C2483.7,232,2455.2,250,2449.2,253.5z"/>
		</g>
		<g>
			<path class="st3" d="M2443.2,261.2l47-29.2l-62.9-40l-3.3,2l-44.7,26.5c0,0-2,2.5,3.5,6.3c7.2,3.4,50.8,28.8,59.5,33.9
				C2442.6,260.9,2442.9,261,2443.2,261.2c0.3,0.2,0.5,0.3,0.5,0.3"/>
			<path class="st3" d="M2443.2,261.2c0,0,0-4.2,6-7.7s34.5-21.5,34.5-21.5"/>
			<polyline class="st3" points="2424.4,194.8 2483.7,232 2490.1,232 			"/>
			<line class="st3" x1="2395.2" y1="222" x2="2449.2" y2="253.5"/>
		</g>
	</g>
	<g id="XMLID_4_">
		<g>
			<polygon class="st1" points="2462.9,1078.6 2456.5,1078.6 2397.2,1041.4 2396.7,1040.6 2400,1038.6 			"/>
			<path class="st0" d="M2422,1100.1c-6,3.5-6,7.7-6,7.7c-0.3-0.2-0.6-0.3-1-0.6c-8.7-5.1-52.3-30.5-59.5-33.9
				c-5.5-3.8-3.5-6.3-3.5-6.3l44.7-26.5l0.5,0.8l59.3,37.3C2456.5,1078.6,2428,1096.6,2422,1100.1z"/>
		</g>
		<g>
			<path class="st3" d="M2416,1107.8l47-29.2l-62.9-40l-3.3,2l-44.7,26.5c0,0-2,2.5,3.5,6.3c7.2,3.4,50.8,28.8,59.5,33.9
				C2415.4,1107.5,2415.7,1107.7,2416,1107.8c0.3,0.2,0.5,0.3,0.5,0.3"/>
			<path class="st3" d="M2416,1107.8c0,0,0-4.2,6-7.7s34.5-21.5,34.5-21.5"/>
			<polyline class="st3" points="2397.2,1041.4 2456.5,1078.6 2462.9,1078.6 			"/>
			<line class="st3" x1="2368" y1="1068.6" x2="2422" y2="1100.1"/>
		</g>
	</g>
	<g id="XMLID_5_">
		<g>
			<polygon class="st1" points="275.3,1041.9 268.9,1041.9 209.5,1004.7 209.1,1003.9 212.4,1001.9 			"/>
			<path class="st0" d="M234.4,1063.4c-6,3.5-6,7.7-6,7.7c-0.3-0.2-0.6-0.3-1-0.6c-8.7-5.1-52.3-30.5-59.5-33.9
				c-5.5-3.8-3.5-6.3-3.5-6.3l44.7-26.5l0.5,0.8l59.3,37.3C268.9,1041.9,240.4,1059.9,234.4,1063.4z"/>
		</g>
		<g>
			<path class="st3" d="M228.3,1071.1l47-29.2l-62.9-40l-3.3,2l-44.7,26.5c0,0-2,2.5,3.5,6.3c7.2,3.4,50.8,28.8,59.5,33.9
				C227.7,1070.8,228.1,1071,228.3,1071.1c0.4,0.2,0.5,0.3,0.5,0.3"/>
			<path class="st3" d="M228.3,1071.1c0,0,0-4.2,6-7.7s34.5-21.5,34.5-21.5"/>
			<polyline class="st3" points="209.5,1004.7 268.9,1041.9 275.3,1041.9 			"/>
			<line class="st3" x1="180.4" y1="1031.9" x2="234.4" y2="1063.4"/>
		</g>
	</g>
	<g id="XMLID_6_">
		<g>
			<polygon class="st1" points="302.6,251.4 296.2,251.4 236.8,214.2 236.4,213.4 239.7,211.4 			"/>
			<path class="st0" d="M261.7,272.9c-6,3.5-6,7.7-6,7.7c-0.3-0.1-0.6-0.3-1-0.6c-8.7-5.1-52.3-30.5-59.5-33.9
				c-5.5-3.8-3.5-6.3-3.5-6.3l44.7-26.5l0.5,0.8l59.3,37.3C296.2,251.4,267.7,269.4,261.7,272.9z"/>
		</g>
		<g>
			<path class="st3" d="M255.6,280.6l47-29.2l-62.9-40l-3.3,2l-44.7,26.5c0,0-2,2.5,3.5,6.3c7.2,3.4,50.8,28.8,59.5,33.9
				C255.1,280.3,255.4,280.5,255.6,280.6c0.4,0.2,0.5,0.3,0.5,0.3"/>
			<path class="st3" d="M255.6,280.6c0,0,0-4.2,6-7.7s34.5-21.5,34.5-21.5"/>
			<polyline class="st3" points="236.8,214.2 296.2,251.4 302.6,251.4 			"/>
			<line class="st3" x1="207.7" y1="241.4" x2="261.7" y2="272.9"/>
		</g>
	</g>
</g>
<g id="Layer_3" class="st4">
	<path class="st5" d="M349.6,874c0,0-12.9-7.5,0-15s38.4-20.5,38.4-20.5s6.5-6,15.5,0S423,851,423,851s10,6.5,0,12.5s-29,17-29,17
		l-9.9,7c0,0-11.7,3.5-23.1-5S349.6,874,349.6,874z"/>
</g>
</svg>
